# xmcd
#
# Track frame offsets:
#	150
#	19459
#	43901
#	65796
#	80828
#	108570
#	126577
#	140839
#	162871
#	182518
#	198695
#	213592
#	229869
#	247689
#	267861
#	287663
#
# Disc length: 4066 seconds
#
# Revision: 0
# Processed by: cddbd v1.5.2PL0 Copyright (c) Steve Scherf et al.
# Submitted via: EasyCDDAExtractor 4.6.0.1
#
DISCID=000fe010
DTITLE=Wynonna - Collection
DYEAR=1997
DGENRE=Country
TTITLE0=No One Else On Earth
TTITLE1=Making My Way
TTITLE2=Somebody To Love You
TTITLE3=Change The World
TTITLE4=Heaven Help My Heart
TTITLE5=Healing
TTITLE6=Rock Bottom
TTITLE7=To Be Loved By You
TTITLE8=Father Sun
TTITLE9=Freebird
TTITLE10=Let's Make A Baby King
TTITLE11=Girls With Guitars
TTITLE12=Only Love
TTITLE13=I Saw The Light
TTITLE14=She Is His Only Need
TTITLE15=My Strongest Weakness
EXTD=
EXTT0=
EXTT1=
EXTT2=
EXTT3=
EXTT4=
EXTT5=
EXTT6=
EXTT7=
EXTT8=
EXTT9=
EXTT10=
EXTT11=
EXTT12=
EXTT13=
EXTT14=
EXTT15=
PLAYORDER=
